HIERARCHY
ROOT Hips
{
	OFFSET 0.000000 121.760803 0.000000
	CHANNELS 6 Xposition Yposition Zposition Xrotation Yrotation Zrotation 
	JOINT Spine
	{
		OFFSET 0.072000 7.257294 -0.789700
		CHANNELS 3 Xrotation Yrotation Zrotation
		JOINT Spine1
		{
			OFFSET 0.000000 12.508769 -0.658067
			CHANNELS 3 Xrotation Yrotation Zrotation
			JOINT Spine1_split
			{
				OFFSET 0.000000 12.508769 -0.658067
				CHANNELS 3 Xrotation Yrotation Zrotation
				JOINT Spine2
				{
					OFFSET 0.000000 12.508769 -0.658067
					CHANNELS 3 Xrotation Yrotation Zrotation
					JOINT Neck
					{
						OFFSET 0.000000 14.033295 7.520400
						CHANNELS 3 Xrotation Yrotation Zrotation
						JOINT Head
						{
							OFFSET 0.000000 8.198502 5.703100
							CHANNELS 3 Xrotation Yrotation Zrotation
							JOINT HeadTop_End
							{
								OFFSET 0.000000 17.760803 13.332701
								CHANNELS 3 Xrotation Yrotation Zrotation
								End Site
								{
									OFFSET 0.000000 0.000000 0.000000
								}
							}
						}
					}
					JOINT LeftShoulder
					{
						OFFSET 6.292450 5.785301 -0.669000
						CHANNELS 3 Xrotation Yrotation Zrotation
						JOINT LeftShoulder_split
						{
							OFFSET 6.292450 5.785301 -0.669000
							CHANNELS 3 Xrotation Yrotation Zrotation
							JOINT LeftArm
							{
								OFFSET 13.907140 -6.093903 1.965100
								CHANNELS 3 Xrotation Yrotation Zrotation
								JOINT LeftForeArm
								{
									OFFSET 34.140198 0.000000 0.000000
									CHANNELS 3 Xrotation Yrotation Zrotation
									JOINT LeftHand
									{
										OFFSET 40.960209 0.000000 0.000000
										CHANNELS 3 Xrotation Yrotation Zrotation
										JOINT LeftHandThumb1
										{
											OFFSET 10.006996 -7.170425 9.573125
											CHANNELS 3 Xrotation Yrotation Zrotation
											JOINT LeftHandThumb2
											{
												OFFSET 1.835007 -1.059448 1.059443
												CHANNELS 3 Xrotation Yrotation Zrotation
												JOINT LeftHandThumb3
												{
													OFFSET 2.112267 -1.219513 1.219518
													CHANNELS 3 Xrotation Yrotation Zrotation
													JOINT LeftHandThumb4
													{
														OFFSET 4.843811 -2.796570 2.796576
														CHANNELS 3 Xrotation Yrotation Zrotation
														End Site
														{
															OFFSET 0.000000 0.000000 0.000000
														}
													}
												}
											}
										}
										JOINT LeftHandIndex1
										{
											OFFSET 18.389847 -0.922348 4.596882
											CHANNELS 3 Xrotation Yrotation Zrotation
											JOINT LeftHandIndex2
											{
												OFFSET 4.711273 0.000000 0.000000
												CHANNELS 3 Xrotation Yrotation Zrotation
												JOINT LeftHandIndex3
												{
													OFFSET 2.886131 0.000000 0.000000
													CHANNELS 3 Xrotation Yrotation Zrotation
													JOINT LeftHandIndex4
													{
														OFFSET 6.145912 0.000000 0.000000
														CHANNELS 3 Xrotation Yrotation Zrotation
														End Site
														{
															OFFSET 0.000000 0.000000 0.000000
														}
													}
												}
											}
										}
										JOINT LeftHandMiddle1
										{
											OFFSET 18.013008 0.000000 0.000000
											CHANNELS 3 Xrotation Yrotation Zrotation
											JOINT LeftHandMiddle2
											{
												OFFSET 4.946693 0.000000 0.000000
												CHANNELS 3 Xrotation Yrotation Zrotation
												JOINT LeftHandMiddle3
												{
													OFFSET 3.342232 0.000000 0.000000
													CHANNELS 3 Xrotation Yrotation Zrotation
													JOINT LeftHandMiddle4
													{
														OFFSET 4.461754 0.000000 0.000000
														CHANNELS 3 Xrotation Yrotation Zrotation
														End Site
														{
															OFFSET 0.000000 0.000000 0.000000
														}
													}
												}
											}
										}
										JOINT LeftHandRing1
										{
											OFFSET 15.849892 -0.102921 -4.126150
											CHANNELS 3 Xrotation Yrotation Zrotation
											JOINT LeftHandRing2
											{
												OFFSET 3.527054 0.000000 0.000000
												CHANNELS 3 Xrotation Yrotation Zrotation
												JOINT LeftHandRing3
												{
													OFFSET 2.961098 0.000000 0.000000
													CHANNELS 3 Xrotation Yrotation Zrotation
													JOINT LeftHandRing4
													{
														OFFSET 4.927200 0.000000 0.000000
														CHANNELS 3 Xrotation Yrotation Zrotation
														End Site
														{
															OFFSET 0.000000 0.000000 0.000000
														}
													}
												}
											}
										}
										JOINT LeftHandPinky1
										{
											OFFSET 12.791824 -0.832031 -6.799156
											CHANNELS 3 Xrotation Yrotation Zrotation
											JOINT LeftHandPinky2
											{
												OFFSET 3.327133 0.000000 0.000000
												CHANNELS 3 Xrotation Yrotation Zrotation
												JOINT LeftHandPinky3
												{
													OFFSET 3.014900 0.000000 0.000000
													CHANNELS 3 Xrotation Yrotation Zrotation
													JOINT LeftHandPinky4
													{
														OFFSET 5.847786 0.000000 0.000000
														CHANNELS 3 Xrotation Yrotation Zrotation
														End Site
														{
															OFFSET 0.000000 0.000000 0.000000
														}
													}
												}
											}
										}
									}
								}
							}
						}
					}
					JOINT RightShoulder
					{
						OFFSET -6.292450 5.785301 -0.669000
						CHANNELS 3 Xrotation Yrotation Zrotation
						JOINT RightShoulder_split
						{
							OFFSET -6.292450 5.785301 -0.669000
							CHANNELS 3 Xrotation Yrotation Zrotation
							JOINT RightArm
							{
								OFFSET -13.907140 -6.093903 1.965100
								CHANNELS 3 Xrotation Yrotation Zrotation
								JOINT RightForeArm
								{
									OFFSET -34.140198 0.000000 0.000000
									CHANNELS 3 Xrotation Yrotation Zrotation
									JOINT RightHand
									{
										OFFSET -40.960209 0.000000 0.000000
										CHANNELS 3 Xrotation Yrotation Zrotation
										JOINT RightHandThumb1
										{
											OFFSET -10.007050 -7.170456 9.573117
											CHANNELS 3 Xrotation Yrotation Zrotation
											JOINT RightHandThumb2
											{
												OFFSET -1.835007 -1.059448 1.059443
												CHANNELS 3 Xrotation Yrotation Zrotation
												JOINT RightHandThumb3
												{
													OFFSET -2.112267 -1.219513 1.219518
													CHANNELS 3 Xrotation Yrotation Zrotation
													JOINT RightHandThumb4
													{
														OFFSET -4.843834 -2.796585 2.796590
														CHANNELS 3 Xrotation Yrotation Zrotation
														End Site
														{
															OFFSET 0.000000 0.000000 0.000000
														}
													}
												}
											}
										}
										JOINT RightHandIndex1
										{
											OFFSET -18.389870 -0.922424 4.596786
											CHANNELS 3 Xrotation Yrotation Zrotation
											JOINT RightHandIndex2
											{
												OFFSET -4.711273 0.000000 0.000000
												CHANNELS 3 Xrotation Yrotation Zrotation
												JOINT RightHandIndex3
												{
													OFFSET -2.886131 0.000000 0.000000
													CHANNELS 3 Xrotation Yrotation Zrotation
													JOINT RightHandIndex4
													{
														OFFSET -6.145920 0.000000 0.000000
														CHANNELS 3 Xrotation Yrotation Zrotation
														End Site
														{
															OFFSET 0.000000 0.000000 0.000000
														}
													}
												}
											}
										}
										JOINT RightHandMiddle1
										{
											OFFSET -18.013008 0.000000 0.000000
											CHANNELS 3 Xrotation Yrotation Zrotation
											JOINT RightHandMiddle2
											{
												OFFSET -4.946693 0.000000 0.000000
												CHANNELS 3 Xrotation Yrotation Zrotation
												JOINT RightHandMiddle3
												{
													OFFSET -3.342232 0.000000 0.000000
													CHANNELS 3 Xrotation Yrotation Zrotation
													JOINT RightHandMiddle4
													{
														OFFSET -4.461754 0.000000 0.000000
														CHANNELS 3 Xrotation Yrotation Zrotation
														End Site
														{
															OFFSET 0.000000 0.000000 0.000000
														}
													}
												}
											}
										}
										JOINT RightHandRing1
										{
											OFFSET -15.849876 -0.102936 -4.126237
											CHANNELS 3 Xrotation Yrotation Zrotation
											JOINT RightHandRing2
											{
												OFFSET -3.527054 0.000000 0.000000
												CHANNELS 3 Xrotation Yrotation Zrotation
												JOINT RightHandRing3
												{
													OFFSET -2.961098 0.000000 0.000000
													CHANNELS 3 Xrotation Yrotation Zrotation
													JOINT RightHandRing4
													{
														OFFSET -4.927200 0.000000 0.000000
														CHANNELS 3 Xrotation Yrotation Zrotation
														End Site
														{
															OFFSET 0.000000 0.000000 0.000000
														}
													}
												}
											}
										}
										JOINT RightHandPinky1
										{
											OFFSET -12.791786 -0.832077 -6.799222
											CHANNELS 3 Xrotation Yrotation Zrotation
											JOINT RightHandPinky2
											{
												OFFSET -3.327133 0.000000 0.000000
												CHANNELS 3 Xrotation Yrotation Zrotation
												JOINT RightHandPinky3
												{
													OFFSET -3.014900 0.000000 0.000000
													CHANNELS 3 Xrotation Yrotation Zrotation
													JOINT RightHandPinky4
													{
														OFFSET -5.847786 0.000000 0.000000
														CHANNELS 3 Xrotation Yrotation Zrotation
														End Site
														{
															OFFSET 0.000000 0.000000 0.000000
														}
													}
												}
											}
										}
									}
								}
							}
						}
					}
				}
			}
		}
	}
	JOINT LeftUpLeg
	{
		OFFSET 13.026900 -6.336304 -1.092800
		CHANNELS 3 Xrotation Yrotation Zrotation
		JOINT LeftLeg
		{
			OFFSET 0.524474 -46.096886 9.782700
			CHANNELS 3 Xrotation Yrotation Zrotation
			JOINT LeftFoot
			{
				OFFSET -0.524474 -53.427422 -12.948200
				CHANNELS 3 Xrotation Yrotation Zrotation
				JOINT LeftToeBase
				{
					OFFSET 0.192200 -14.009700 16.364100
					CHANNELS 3 Xrotation Yrotation Zrotation
					JOINT LeftToe_End
					{
						OFFSET -1.784700 -0.561700 9.474800
						CHANNELS 3 Xrotation Yrotation Zrotation
						End Site
						{
							OFFSET 0.000000 0.000000 0.000000
						}
					}
				}
			}
		}
	}
	JOINT RightUpLeg
	{
		OFFSET -12.883000 -6.336304 -1.092800
		CHANNELS 3 Xrotation Yrotation Zrotation
		JOINT RightLeg
		{
			OFFSET -0.524587 -46.096825 9.782800
			CHANNELS 3 Xrotation Yrotation Zrotation
			JOINT RightFoot
			{
				OFFSET 0.524587 -53.427383 -12.948300
				CHANNELS 3 Xrotation Yrotation Zrotation
				JOINT RightToeBase
				{
					OFFSET -0.192200 -14.009700 16.364100
					CHANNELS 3 Xrotation Yrotation Zrotation
					JOINT RightToe_End
					{
						OFFSET 1.784700 -0.561700 9.474800
						CHANNELS 3 Xrotation Yrotation Zrotation
						End Site
						{
							OFFSET 0.000000 0.000000 0.000000
						}
					}
				}
			}
		}
	}
}
MOTION
Frames: 4
Frame Time: 0.016667
-0.183897 146.703430 8.410059 4.427128 -37.462570 5.435037 30.107774 -5.257258 -10.348317 12.785628 1.087593 -3.033126 0.000000 0.000000 0.000000 12.733216 1.050406 -3.241308 -8.164158 20.999278 -13.038084 -23.845973 13.475289 4.639317 0.000000 0.000000 0.000000 9.829644 -9.813828 -1.458545 0.000000 0.000000 0.000000 -62.537738 12.081218 3.106153 46.615590 -25.819843 31.530096 -9.264694 7.312754 9.666261 40.109917 -15.297102 -0.360434 5.639830 28.097624 11.338686 1.088578 40.896755 22.734022 0.000001 -0.000000 -0.000000 6.882228 2.840054 -61.140411 8.247932 7.639977 -89.897959 2.146315 8.173659 -41.827768 0.000003 -0.000000 0.000001 -2.345512 4.688838 -62.655320 8.754100 9.897127 -87.051116 1.995388 4.929272 -37.483310 -0.000001 -0.000000 -0.000002 -9.042535 10.045654 -60.766322 8.524079 9.508815 -66.893076 6.576493 9.896707 -70.384976 0.000004 -0.000001 0.000000 -17.946947 14.754955 -51.485812 8.868423 8.667067 -84.811955 4.540353 8.852505 -59.153038 0.000002 -0.000004 -0.000003 14.990515 20.897818 -4.160223 0.000000 0.000000 0.000000 -28.001561 -11.258127 -3.541427 -45.194563 43.244028 34.197702 -6.582781 -10.157734 -10.545307 -1.525703 -5.490521 13.054250 1.517213 -22.702495 -8.022595 -6.615015 18.786681 8.531374 -0.000000 0.000000 -0.000001 1.268146 4.823973 -8.200815 0.525034 1.162827 0.172180 0.908690 -0.829982 -14.364537 0.000000 -0.000000 0.000000 0.868472 -5.217181 -11.333473 1.480001 -3.605084 20.026700 1.511957 3.331296 -13.916422 0.000000 0.000000 -0.000001 1.814736 -11.814415 -9.180221 1.792561 -3.024106 21.110260 1.689927 -2.799892 9.683680 -0.000001 0.000000 0.000000 2.626214 -21.407338 -3.836556 5.351744 -1.276950 0.651245 7.968255 -5.183579 14.308769 -0.000001 -0.000002 0.000000 -77.975905 -17.840181 30.373687 62.720254 0.000724 7.118918 9.076307 0.037217 -0.001707 -0.000261 -0.007722 0.000049 0.000000 0.000000 -0.000000 -122.832333 -51.508963 1.140416 119.109579 9.078570 -16.706959 21.301837 0.414202 25.449888 -0.000194 0.000202 -0.000336 0.000000 -0.000000 -0.000003 
-0.175988 146.709839 8.449252 4.362735 -37.206376 5.333778 30.107706 -5.304985 -10.345025 12.788126 1.087595 -3.033137 0.000000 0.000000 0.000000 12.735771 1.050413 -3.241315 -8.920862 20.968732 -13.048927 -25.340135 14.061499 5.597396 0.000001 0.000000 -0.000000 9.984071 -9.728892 -0.757581 0.000000 0.000000 0.000000 -62.955800 11.135339 3.775610 46.589246 -25.768463 31.469598 -9.041962 6.729831 9.359719 40.109924 -15.297095 -0.360439 5.639828 28.097628 11.338688 1.088582 40.896758 22.734018 -0.000000 0.000001 -0.000000 6.882231 2.840052 -61.140418 8.247932 7.639976 -89.897959 2.146315 8.173659 -41.827761 -0.000002 -0.000003 0.000000 -2.345514 4.688839 -62.655327 8.754101 9.897119 -87.051116 1.995386 4.929275 -37.483310 0.000004 0.000000 -0.000002 -9.042540 10.045658 -60.766322 8.524078 9.508821 -66.893083 6.576498 9.896706 -70.384976 -0.000001 0.000004 -0.000001 -17.946949 14.754959 -51.485812 8.868424 8.667070 -84.811955 4.540356 8.852510 -59.153038 -0.000000 -0.000002 0.000001 15.302919 20.568548 -4.925038 0.000000 0.000000 0.000000 -28.808321 -11.687209 -3.682303 -45.727877 43.802205 34.969220 -6.236510 -12.921149 -11.831701 -1.525702 -5.490522 13.054247 1.517213 -22.702497 -8.022594 -6.615014 18.786685 8.531372 -0.000000 -0.000001 0.000001 1.268144 4.826741 -8.222272 0.524601 1.165253 0.150705 1.163873 -1.359992 -14.478806 -0.000001 -0.000001 0.000000 0.868224 -5.213088 -11.361332 1.477420 -3.598028 19.974666 1.512730 3.334671 -13.944347 -0.000000 -0.000000 -0.000001 1.809763 -11.815187 -9.204590 1.789869 -3.018417 21.069317 1.687948 -2.797112 9.659876 -0.000001 0.000001 -0.000001 2.625003 -21.404744 -3.858346 5.348390 -1.270571 0.567678 7.967624 -5.183077 14.287273 0.000000 -0.000001 0.000002 -78.085134 -17.752836 30.285189 62.736715 1.335645 7.843405 9.199396 -0.649664 1.214579 0.170582 -0.007771 0.000018 0.000001 -0.000000 0.000002 -123.162586 -51.448513 1.193980 119.181501 8.947822 -16.740413 22.313671 0.493561 26.091145 -0.000196 0.000140 -0.000355 -0.000000 -0.000000 -0.000005 
-0.142459 146.710541 8.462391 4.303737 -36.988374 5.213894 30.108044 -5.313970 -10.337057 12.798051 1.087546 -3.033115 0.000000 0.000000 0.000000 12.745777 1.050443 -3.241320 -8.938873 20.977119 -13.011265 -25.364811 13.878973 5.705351 -0.000004 -0.000000 -0.000000 10.133433 -9.721069 -0.028968 0.000000 0.000000 0.000000 -63.361377 10.080292 4.356418 46.550038 -25.690314 31.376742 -8.810582 6.229384 9.041434 40.109924 -15.297098 -0.360433 5.639829 28.097621 11.338691 1.088579 40.896758 22.734022 0.000000 0.000002 -0.000000 6.882234 2.840054 -61.140418 8.247932 7.639971 -89.897959 2.146322 8.173659 -41.827761 0.000003 0.000002 0.000003 -2.345516 4.688838 -62.655320 8.754101 9.897119 -87.051116 1.995388 4.929272 -37.483306 -0.000003 -0.000002 -0.000001 -9.042539 10.045657 -60.766322 8.524079 9.508815 -66.893076 6.576495 9.896710 -70.384976 -0.000001 0.000001 -0.000001 -17.946952 14.754954 -51.485812 8.868428 8.667068 -84.811955 4.540360 8.852508 -59.153038 -0.000001 0.000003 -0.000001 15.618568 20.231679 -5.707900 0.000000 0.000000 0.000000 -29.640118 -12.140666 -3.854858 -46.313778 44.391807 35.807810 -5.972655 -16.119270 -13.160349 -1.525704 -5.490522 13.054249 1.517209 -22.702494 -8.022598 -6.615015 18.786681 8.531372 0.000001 0.000000 0.000000 1.268114 4.834604 -8.283332 0.527610 1.173657 0.089705 1.477269 -1.848843 -14.683401 -0.000001 -0.000000 0.000000 0.867558 -5.201534 -11.440760 1.470009 -3.577904 19.826700 1.514780 3.345435 -14.023882 -0.000001 0.000000 0.000001 1.800662 -11.816956 -9.274037 1.782259 -3.002214 20.952830 1.688069 -2.787246 9.592465 -0.000002 -0.000004 0.000002 2.621619 -21.397328 -3.920218 5.338784 -1.252251 0.329956 7.965947 -5.181753 14.225981 0.000000 -0.000003 0.000003 -78.106150 -17.802601 30.280681 62.783475 1.251674 7.796839 9.292455 -0.715619 1.392006 0.215736 -0.007770 -0.000022 -0.000001 -0.000000 -0.000000 -123.456298 -51.478733 1.158843 119.319744 8.754825 -16.745775 22.527175 0.521891 26.252122 -0.000202 0.000185 -0.000355 -0.000000 0.000000 -0.000001 
-0.107244 146.711060 8.473017 4.245693 -36.771136 5.093615 30.113542 -5.322693 -10.322094 12.814267 1.087511 -3.033106 0.000000 0.000000 0.000000 12.762080 1.050442 -3.241342 -8.900566 20.965570 -12.984458 -25.327583 13.653085 5.711547 0.000001 0.000000 0.000000 10.281098 -9.782284 0.722436 0.000000 0.000000 0.000000 -63.758600 8.941654 4.845701 46.500245 -25.586442 31.254331 -8.574785 5.831133 8.725817 40.109924 -15.297098 -0.360436 5.639827 28.097621 11.338690 1.088582 40.896758 22.734018 -0.000000 -0.000001 -0.000001 6.882229 2.840054 -61.140411 8.247931 7.639979 -89.897953 2.146323 8.173660 -41.827761 0.000001 -0.000000 0.000001 -2.345515 4.688842 -62.655327 8.754103 9.897120 -87.051116 1.995389 4.929275 -37.483310 -0.000004 -0.000001 -0.000002 -9.042538 10.045654 -60.766328 8.524074 9.508819 -66.893076 6.576491 9.896710 -70.384976 -0.000003 0.000000 0.000001 -17.946949 14.754957 -51.485816 8.868426 8.667068 -84.811948 4.540362 8.852508 -59.153038 0.000000 0.000000 0.000002 15.932605 19.880777 -6.500309 0.000000 0.000000 0.000000 -30.491047 -12.602410 -4.047638 -46.939649 44.997102 36.694898 -5.836490 -19.436208 -14.502602 -1.525704 -5.490522 13.054254 1.517212 -22.702497 -8.022599 -6.615016 18.786683 8.531372 0.000000 0.000001 -0.000004 1.272685 4.847375 -8.379339 0.532369 1.186893 0.002692 1.837487 -2.300211 -14.965221 -0.000001 -0.000000 0.000001 0.866596 -5.183221 -11.565170 1.458484 -3.546339 19.594624 1.518096 3.362325 -14.148608 0.000000 -0.000000 -0.000001 1.786132 -11.819737 -9.382939 1.770359 -2.976799 20.770146 1.684060 -2.772018 9.486540 -0.000000 -0.000000 0.000001 2.616273 -21.385717 -4.017276 5.323957 -1.223550 -0.000108 7.958641 -5.179492 14.129713 -0.000001 0.000004 -0.000003 -78.148006 -17.868612 30.277153 62.838191 1.105190 7.716510 9.480984 -0.722377 1.533589 0.181322 -0.007786 0.000015 -0.000000 -0.000000 -0.000001 -123.768451 -51.505507 1.113695 119.444764 8.533125 -16.750496 22.760140 0.554299 26.425814 -0.000192 0.000186 -0.000344 0.000000 -0.000000 -0.000002 
